<?xml version="1.0" encoding="utf-8"?>
<!-- Generator: Adobe Illustrator 23.0.6, SVG Export Plug-In . SVG Version: 6.00 Build 0)  -->
<svg version="1.1" id="Layer_1" xmlns="http://www.w3.org/2000/svg" xmlns:xlink="http://www.w3.org/1999/xlink" x="0px" y="0px"
	 viewBox="0 0 504.1 428.4" style="enable-background:new 0 0 504.1 428.4;" xml:space="preserve">
<style type="text/css">
	.st0{fill:#685B49;stroke:#30302C;stroke-width:0.2;}
	.st1{fill:#736E55;stroke:#777777;stroke-width:0.2;stroke-linejoin:round;}
	.st2{fill:url(#SVGID_1_);stroke:#777777;stroke-width:0.2;stroke-linejoin:round;}
	.st3{fill:#444444;stroke:#777777;stroke-width:0.2;stroke-linejoin:round;}
	.st4{fill:url(#SVGID_2_);stroke:#858585;stroke-width:0.1;stroke-linejoin:round;}
	.st5{fill:url(#SVGID_3_);stroke:#858585;stroke-width:0.1;stroke-linejoin:round;}
	.st6{fill:url(#SVGID_4_);stroke:#858585;stroke-width:0.1;stroke-linejoin:round;}
	.st7{fill:#493A3D;stroke:#858585;stroke-width:0.1;stroke-linejoin:round;}
	.st8{fill:#635348;stroke:#2A302C;stroke-width:0.2;}
	.st9{fill:#736E55;stroke:#30302C;stroke-width:0.2;}
	.st10{fill:#635348;stroke:#2A302C;stroke-width:0.2;stroke-linecap:round;stroke-linejoin:round;}
	.st11{fill:#685B49;}
	.st12{fill:#685B49;stroke:#6E5739;stroke-width:3.9;}
</style>
<g transform="translate(-579.79 -74.027)">
	<path class="st0" d="M1050.5,235.9c3.4,0.1,9,4.6,9,4.6L1059,427c0,0,15.7,6.8,22.9,9.1c2.9,7.6,1.6,16.3,1.6,16.3l-12.8-2.5
		c-13.7-13.6-28-18.3-43.1-10.2l-12.8-2c0,0,1.1-9.6,5.3-13.2c8-1.9,20.2,0,20.2,0v-184C1040.4,240.5,1046.8,235.8,1050.5,235.9
		L1050.5,235.9z"/>
	<path class="st1" d="M630.8,399l413.5-17.2c1.4-0.1,2.6-1.8,2.6-4l-0.6-241.6c0-2.2-1.2-4.1-2.6-4.3L634.2,74.2
		c-3.4,0.3-8.9,2.7-8.9,5.5l1.2,314.4C626.5,396.9,628.4,399.1,630.8,399"/>
	
		<linearGradient id="SVGID_1_" gradientUnits="userSpaceOnUse" x1="1602.4777" y1="732.0737" x2="2045.9375" y2="574.4237" gradientTransform="matrix(1 0 0 1 -1159.58 -362)">
		<stop  offset="0" style="stop-color:#867850"/>
		<stop  offset="0.3547" style="stop-color:#A08872"/>
		<stop  offset="1" style="stop-color:#867850"/>
	</linearGradient>
	<path class="st2" d="M636.6,399.3l413.5-17.3c1.4-0.1,2.6-1.9,2.6-4l-0.6-242.6c0-2.2-1.2-4.1-2.6-4.3L635.4,74.2
		c-2.4-0.3-4.3,1.7-4.3,4.5l1.2,315.7C632.3,397.2,634.2,399.4,636.6,399.3"/>
	<path class="st3" d="M653.9,383.4l384.3-11.6c1.4,0,2.5-1.9,2.5-4.1l-0.6-217.4c0-2.2-1.1-4.2-2.6-4.4L652.8,91.1
		c-2.4-0.3-4.3,1.7-4.3,4.7l1.1,282.5C649.6,381.2,651.6,383.4,653.9,383.4"/>
	
		<linearGradient id="SVGID_2_" gradientUnits="userSpaceOnUse" x1="2053.0959" y1="736.9111" x2="2052.2959" y2="741.6011" gradientTransform="matrix(1 0 0 1 -1159.58 -362)">
		<stop  offset="0" style="stop-color:#B8B8B8"/>
		<stop  offset="0.5" style="stop-color:#E3E3E3"/>
		<stop  offset="1" style="stop-color:#B9B9B9"/>
	</linearGradient>
	<path class="st4" d="M878.4,372.7l30.2,3.8l-0.8,5.5l-30-4.9L878.4,372.7L878.4,372.7z"/>
	
		<linearGradient id="SVGID_3_" gradientUnits="userSpaceOnUse" x1="1410.4244" y1="703.4761" x2="1409.6244" y2="708.1761" gradientTransform="matrix(0.9075 -0.4201 0.4201 0.9075 -677.8174 329.1542)">
		<stop  offset="0" style="stop-color:#B8B8B8"/>
		<stop  offset="0.5" style="stop-color:#E3E3E3"/>
		<stop  offset="1" style="stop-color:#B9B9B9"/>
	</linearGradient>
	<path class="st5" d="M883,379.3l29-9.2l1.6,5.3l-29.3,8.2L883,379.3L883,379.3z"/>
	
		<linearGradient id="SVGID_4_" gradientUnits="userSpaceOnUse" x1="1273.988" y1="5.9884" x2="1273.1882" y2="10.6883" gradientTransform="matrix(-0.9688 -0.2477 0.2477 -0.9688 2143.5361 700.1096)">
		<stop  offset="0" style="stop-color:#B8B8B8"/>
		<stop  offset="0.5" style="stop-color:#E3E3E3"/>
		<stop  offset="1" style="stop-color:#B9B9B9"/>
	</linearGradient>
	<path class="st6" d="M924.9,384.6l-28.3-11.2l2.1-5.1l27.9,12.2L924.9,384.6L924.9,384.6z"/>
	<path class="st7" d="M732.1,376.1l37.6,1.6l-0.5,11.9l-37.6-1.6L732.1,376.1z"/>
	<path class="st8" d="M631,206.6c4.4,0.1,11.8,6.2,11.8,6.2L642.1,467c0,0,20.4,9.3,29.8,12.5c3.7,10.4,2.1,22.2,2.1,22.2l-5,0.6
		l-11.7-4.1c-8.9-9.3-22.7-15.7-33.2-17.6S611.3,480,602,484l-5.2,1.1c0,0-10.8-16.6-5.3-21.5c10.4-2.5,26.3,0,26.3,0V212.9
		C617.8,212.9,626.1,206.5,631,206.6L631,206.6z"/>
	<path class="st9" d="M626.3,207.3c4.4,0.1,11.8,6.2,11.8,6.2l-0.7,254.1c0,0,20.4,9.3,29.8,12.5c3.7,10.4,2.1,22.2,2.1,22.2
		l-16.6-3.5c-17.8-18.5-36.4-24.9-56.1-13.8l-16.6-2.8c0,0,1.4-13.1,6.9-18c10.4-2.5,26.3,0,26.3,0V213.5
		C613.1,213.5,621.4,207.2,626.3,207.3L626.3,207.3z"/>
	<path class="st10" d="M629.8,240.9c0,3.3-1.7,5.9-3.8,5.9s-3.8-2.6-3.8-5.9s1.7-5.9,3.8-5.9S629.8,237.6,629.8,240.9z"/>
	<path class="st11" d="M725.5,378.3l6.5-2.4l-0.1,12.7l-6.5-0.1L725.5,378.3L725.5,378.3z"/>
	<path class="st12" d="M1047.7,381.6l-8-2.5L650,391.7l13.4,5L1047.7,381.6L1047.7,381.6z"/>
</g>
<image style="overflow:visible;enable-background:new    ;" width="1920" height="1053" xlink:href="macbook-562499.png"  transform="matrix(0.1429 0 0 0.1542 127.6998 100.1675)">
</image>
</svg>
